<?xml version="1.0" encoding="UTF-8"?>
<svg width="239px" height="62px" viewBox="0 0 239 62" version="1.1" xmlns="http://www.w3.org/2000/svg" xmlns:xlink="http://www.w3.org/1999/xlink">
    <!-- Generator: Sketch 39.1 (31720) - http://www.bohemiancoding.com/sketch -->
    <title>Logo Dark</title>
    <desc>Created with Sketch.</desc>
    <defs></defs>
    <g id="Symbols" stroke="none" stroke-width="1" fill="none" fill-rule="evenodd">
        <g id="Colors" transform="translate(-83.000000, -575.000000)">
            <g id="Logo-Dark" transform="translate(75.000000, 566.000000)">
                <path d="M89.914,30.636 C89.4006641,31.1200024 88.6710047,31.5049986 87.725,31.791 C86.7789953,32.0770014 85.8000051,32.22 84.788,32.22 C82.7199897,32.22 81.0150067,31.5490067 79.673,30.207 C78.3309933,28.8649933 77.66,27.1380106 77.66,25.026 C77.66,23.8379941 77.9093308,22.6646725 78.408,21.506 C78.9066692,20.3473275 79.6839947,19.3866705 80.74,18.624 C81.7960053,17.8613295 83.1453251,17.48 84.788,17.48 C85.9906727,17.48 87.0173291,17.648665 87.868,17.986 C88.7186709,18.323335 89.3933308,18.7193311 89.892,19.174 L90.266,22.276 L88.264,22.474 L87.912,20.494 C87.0319956,19.9219971 85.9760062,19.636 84.744,19.636 C83.3946599,19.636 82.3130041,20.1053286 81.499,21.044 C80.6849959,21.9826714 80.278,23.2659919 80.278,24.894 C80.278,26.5953418 80.7106623,27.882329 81.576,28.755 C82.4413377,29.627671 83.577993,30.064 84.986,30.064 C86.1593392,30.064 87.1199963,29.8586687 87.868,29.448 L88.22,27.314 L90.222,27.512 L89.914,30.636 Z M101.79,32 L96.07,32 L96.07,29.91 L97.72,29.91 L97.72,19.79 L96.07,19.79 L96.07,17.7 L101.79,17.7 L101.79,19.79 L100.162,19.79 L100.162,29.91 L101.79,29.91 L101.79,32 Z M120.288,22.364 L118.176,22.54 L117.736,19.79 L114.942,19.79 L114.942,29.91 L117.34,29.91 L117.34,32 L110.19,32 L110.19,29.91 L112.5,29.91 L112.5,19.79 L109.684,19.79 L109.244,22.54 L107.154,22.364 L107.594,17.7 L119.848,17.7 L120.288,22.364 Z M138.522,19.79 L137.224,19.79 L132.956,26.456 L132.956,29.91 L135.354,29.91 L135.354,32 L128.226,32 L128.226,29.91 L130.514,29.91 L130.514,26.434 L126.092,19.79 L124.772,19.79 L124.772,17.7 L130.426,17.7 L130.426,19.79 L128.93,19.79 L131.79,24.278 L131.922,24.278 L134.716,19.79 L133.132,19.79 L133.132,17.7 L138.522,17.7 L138.522,19.79 Z M161.9,32 L151.318,32 L151.318,29.91 L152.968,29.91 L152.968,19.79 L151.318,19.79 L151.318,17.7 L157.544,17.7 L157.544,19.79 L155.41,19.79 L155.41,29.91 L159.81,29.91 L160.25,26.94 L162.34,27.116 L161.9,32 Z M173.204,32 L167.484,32 L167.484,29.91 L169.134,29.91 L169.134,19.79 L167.484,19.79 L167.484,17.7 L173.204,17.7 L173.204,19.79 L171.576,19.79 L171.576,29.91 L173.204,29.91 L173.204,32 Z M192.384,26.39 L191.526,26.39 L191.526,32 L189.634,32 L189.392,30.328 C188.951998,30.8853361 188.37267,31.3399982 187.654,31.692 C186.93533,32.0440018 186.092005,32.22 185.124,32.22 C183.129323,32.22 181.534339,31.5196737 180.339,30.119 C179.143661,28.7183263 178.546,26.9913436 178.546,24.938 C178.546,22.8993231 179.17666,21.146674 180.438,19.68 C181.69934,18.213326 183.473989,17.48 185.762,17.48 C186.920672,17.48 187.954662,17.6449984 188.864,17.975 C189.773338,18.3050017 190.477331,18.7046643 190.976,19.174 L191.372,22.122 L189.37,22.32 L188.974,20.516 C188.123329,19.9293304 187.038007,19.636 185.718,19.636 C184.383327,19.636 183.290671,20.0906621 182.44,21 C181.589329,21.9093379 181.164,23.2073249 181.164,24.894 C181.164,26.5513416 181.567329,27.8273289 182.374,28.722 C183.180671,29.6166711 184.23666,30.064 185.542,30.064 C186.642006,30.064 187.50733,29.767003 188.138,29.173 C188.76867,28.578997 189.084,27.8273379 189.084,26.918 L189.084,26.39 L186.048,26.39 L186.048,24.3 L192.384,24.3 L192.384,26.39 Z M212.752,32 L207.032,32 L207.032,29.91 L208.682,29.91 L208.682,25.774 L201.928,25.774 L201.928,29.91 L203.556,29.91 L203.556,32 L197.836,32 L197.836,29.91 L199.486,29.91 L199.486,19.79 L197.836,19.79 L197.836,17.7 L203.556,17.7 L203.556,19.79 L201.928,19.79 L201.928,23.706 L208.682,23.706 L208.682,19.79 L207.032,19.79 L207.032,17.7 L212.752,17.7 L212.752,19.79 L211.124,19.79 L211.124,29.91 L212.752,29.91 L212.752,32 Z M231.25,22.364 L229.138,22.54 L228.698,19.79 L225.904,19.79 L225.904,29.91 L228.302,29.91 L228.302,32 L221.152,32 L221.152,29.91 L223.462,29.91 L223.462,19.79 L220.646,19.79 L220.206,22.54 L218.116,22.364 L218.556,17.7 L230.81,17.7 L231.25,22.364 Z M246.976,27.798 C246.976,29.2206738 246.481005,30.3133295 245.491,31.076 C244.500995,31.8386705 243.192008,32.22 241.564,32.22 C240.595995,32.22 239.661005,32.1026678 238.759,31.868 C237.856995,31.6333322 237.142003,31.2960022 236.614,30.856 L237.01,27.578 L238.968,27.776 L238.924,29.536 C239.408002,29.7853346 239.851665,29.9429997 240.255,30.009 C240.658335,30.0750003 241.035998,30.108 241.388,30.108 C242.238671,30.108 242.946331,29.9723347 243.511,29.701 C244.075669,29.4296653 244.358,28.8833374 244.358,28.062 C244.358,27.1673289 244.035337,26.5696682 243.39,26.269 C242.744663,25.9683318 242.004004,25.7373341 241.168,25.576 C240.49333,25.4439993 239.811337,25.2680011 239.122,25.048 C238.432663,24.8279989 237.860669,24.4613359 237.406,23.948 C236.951331,23.4346641 236.724,22.6793383 236.724,21.682 C236.724,20.1859925 237.233662,19.1116699 238.253,18.459 C239.272338,17.8063301 240.41266,17.48 241.674,17.48 C242.554004,17.48 243.408329,17.6119987 244.237,17.876 C245.065671,18.1400013 245.714664,18.4846645 246.184,18.91 L246.316,21.924 L244.358,22.1 L244.16,20.252 C243.749331,20.0173322 243.338669,19.8560004 242.928,19.768 C242.517331,19.6799996 242.121335,19.636 241.74,19.636 C241.050663,19.636 240.478669,19.7753319 240.024,20.054 C239.569331,20.3326681 239.342,20.7799969 239.342,21.396 C239.342,22.1146703 239.624331,22.6023321 240.189,22.859 C240.753669,23.115668 241.387996,23.3246659 242.092,23.486 C242.693336,23.6180007 243.37533,23.7939989 244.138,24.014 C244.90067,24.2340011 245.564331,24.6263305 246.129,25.191 C246.693669,25.7556695 246.976,26.6246608 246.976,27.798 L246.976,27.798 Z M89.914,62.636 C89.4006641,63.1200024 88.6710047,63.5049986 87.725,63.791 C86.7789953,64.0770014 85.8000051,64.22 84.788,64.22 C82.7199897,64.22 81.0150067,63.5490067 79.673,62.207 C78.3309933,60.8649933 77.66,59.1380106 77.66,57.026 C77.66,55.8379941 77.9093308,54.6646725 78.408,53.506 C78.9066692,52.3473275 79.6839947,51.3866705 80.74,50.624 C81.7960053,49.8613295 83.1453251,49.48 84.788,49.48 C85.9906727,49.48 87.0173291,49.648665 87.868,49.986 C88.7186709,50.323335 89.3933308,50.7193311 89.892,51.174 L90.266,54.276 L88.264,54.474 L87.912,52.494 C87.0319956,51.9219971 85.9760062,51.636 84.744,51.636 C83.3946599,51.636 82.3130041,52.1053286 81.499,53.044 C80.6849959,53.9826714 80.278,55.2659919 80.278,56.894 C80.278,58.5953418 80.7106623,59.882329 81.576,60.755 C82.4413377,61.627671 83.577993,62.064 84.986,62.064 C86.1593392,62.064 87.1199963,61.8586687 87.868,61.448 L88.22,59.314 L90.222,59.512 L89.914,62.636 Z M110.348,56.828 C110.348,58.8520101 109.69534,60.5899927 108.39,62.042 C107.08466,63.4940073 105.302678,64.22 103.044,64.22 C100.770655,64.22 99.0033396,63.4940073 97.742,62.042 C96.4806604,60.5899927 95.85,58.8666766 95.85,56.872 C95.85,54.7893229 96.5099934,53.0366738 97.83,51.614 C99.1500066,50.1913262 100.909989,49.48 103.11,49.48 C105.339344,49.48 107.102994,50.2023261 108.401,51.647 C109.699006,53.0916739 110.348,54.8186566 110.348,56.828 L110.348,56.828 Z M107.708,56.894 C107.708,55.2953253 107.301004,54.0193381 106.487,53.066 C105.672996,52.1126619 104.540007,51.636 103.088,51.636 C101.562659,51.636 100.415004,52.1309951 99.645,53.121 C98.8749962,54.111005 98.49,55.339326 98.49,56.806 C98.49,58.2286738 98.8676629,59.4606615 99.623,60.502 C100.378337,61.5433385 101.555325,62.064 103.154,62.064 C104.664674,62.064 105.80133,61.5763382 106.564,60.601 C107.32667,59.6256618 107.708,58.3900075 107.708,56.894 L107.708,56.894 Z M126.646,53.99 L124.556,54.188 L124.116,51.79 L119.694,51.79 L119.694,56.388 L125.898,56.388 L125.898,58.456 L119.694,58.456 L119.694,61.91 L122.092,61.91 L122.092,64 L115.602,64 L115.602,61.91 L117.252,61.91 L117.252,51.79 L115.602,51.79 L115.602,49.7 L126.206,49.7 L126.646,53.99 Z M143.054,53.99 L140.964,54.188 L140.524,51.79 L136.102,51.79 L136.102,56.388 L142.306,56.388 L142.306,58.456 L136.102,58.456 L136.102,61.91 L138.5,61.91 L138.5,64 L132.01,64 L132.01,61.91 L133.66,61.91 L133.66,51.79 L132.01,51.79 L132.01,49.7 L142.614,49.7 L143.054,53.99 Z M159.308,64 L148.418,64 L148.418,61.91 L150.068,61.91 L150.068,51.79 L148.418,51.79 L148.418,49.7 L159.154,49.7 L159.594,53.836 L157.504,54.012 L157.064,51.79 L152.51,51.79 L152.51,55.75 L158.802,55.75 L158.802,57.84 L152.51,57.84 L152.51,61.91 L157.218,61.91 L157.658,59.688 L159.748,59.864 L159.308,64 Z M176.31,64 L165.42,64 L165.42,61.91 L167.07,61.91 L167.07,51.79 L165.42,51.79 L165.42,49.7 L176.156,49.7 L176.596,53.836 L174.506,54.012 L174.066,51.79 L169.512,51.79 L169.512,55.75 L175.804,55.75 L175.804,57.84 L169.512,57.84 L169.512,61.91 L174.22,61.91 L174.66,59.688 L176.75,59.864 L176.31,64 Z" id="CITY-LIGHTS-COFFEE" fill="#262626"></path>
                <g id="Group" stroke-width="1" transform="translate(37.000000, 39.279800) rotate(-30.000000) translate(-37.000000, -39.279800) translate(13.000000, 7.779800)" stroke="#262626">
                    <path d="M17.2286231,2.51219512 C16.7226231,5.68780488 16.4579346,8.34170732 15.8606887,10.9177317 C13.7650493,19.956878 16.0793772,27.8649024 21.8376723,34.883 C27.7905247,42.1362439 29.8220657,50.0782927 26.6797378,59.1726341 C25.9241313,61.3577561 24.7477378,62.2469268 22.495246,62.4170488 C15.2649509,62.9629512 10.1876067,59.318561 6.76324603,53.6062439 C-0.547737578,41.4119024 -1.97072118,28.3064634 2.68583619,14.833561 C4.91042636,8.39614634 9.21104931,3.7287561 17.2286231,2.51219512" id="Fill-44-Copy" stroke-width="2"></path>
                    <path d="M32.1225061,59.9210579 C32.6941126,57.0524237 33.0741782,54.9028383 33.5560471,52.776692 C35.0597192,46.135131 34.0597848,39.8678383 29.2976536,34.9985701 C20.3864733,25.8875944 19.6987356,15.2863505 22.2928339,3.6749603 C22.9119487,0.902350541 24.1441454,0.388960297 26.5519815,0.724667614 C31.8299159,1.45959444 35.978211,4.2004481 38.968211,8.39149688 C48.0890307,21.1763505 49.3996536,34.951692 43.1813585,49.3152774 C41.1106044,54.0968383 37.6334569,57.8024725 32.1225061,59.9210579" id="Fill-46-Copy" stroke-width="2"></path>
                </g>
            </g>
        </g>
    </g>
</svg>