<?xml version="1.0" encoding="utf-8"?>
<!-- Generator: Adobe Illustrator 24.1.2, SVG Export Plug-In . SVG Version: 6.00 Build 0)  -->
<svg version="1.1" id="Layer_1" xmlns="http://www.w3.org/2000/svg" xmlns:xlink="http://www.w3.org/1999/xlink" x="0px" y="0px"
	 viewBox="0 0 239 62" style="enable-background:new 0 0 239 62;" xml:space="preserve">
<style type="text/css">
	.st0{fill-rule:evenodd;clip-rule:evenodd;fill:#FFFFFF;}
	.st1{fill:#FFFFFF;stroke:#FFFFFF;stroke-width:2;}
	.st2{fill:none;stroke:#FFFFFF;stroke-width:2;}
</style>
<g id="Symbols">
	<g id="Colors">
		<g id="Logo-Light">
			<g id="Group">
				<path id="CITY-LIGHTS-COFFEE" class="st0" d="M81.9,21.6c-0.6,0.5-1.4,0.9-2.2,1.1c-0.9,0.3-1.9,0.4-2.9,0.4
					c-1.9,0.1-3.8-0.7-5.1-2c-1.4-1.4-2.1-3.3-2-5.2c0-1.2,0.3-2.4,0.8-3.5c0.5-1.2,1.3-2.2,2.3-2.9c1.2-0.8,2.6-1.2,4.1-1.1
					c1,0,2.1,0.1,3.1,0.5c0.7,0.3,1.4,0.7,2,1.2l0.4,3.1l-2,0.2l-0.3-2c-1-0.6-2.1-0.9-3.2-0.9c-1.2-0.1-2.4,0.5-3.2,1.4
					c-0.9,1.1-1.3,2.5-1.2,3.9c-0.1,1.4,0.4,2.8,1.3,3.9c0.9,0.9,2.1,1.4,3.4,1.3c1,0,2-0.2,2.9-0.6l0.3-2.1l2,0.2L81.9,21.6z
					 M93.8,23h-5.7v-2.1h1.7V10.8h-1.7V8.7h5.7v2.1h-1.6v10.1h1.6V23z M112.3,13.4l-2.1,0.2l-0.4-2.8h-2.8v10.1h2.4V23h-7.2v-2.1
					h2.3V10.8h-2.8l-0.4,2.8l-2.1-0.2l0.4-4.7h12.3L112.3,13.4z M130.5,10.8h-1.3l-4.2,6.7v3.5h2.4V23h-7.1v-2.1h2.3v-3.5l-4.4-6.6
					h-1.3V8.7h5.7v2.1H121l2.9,4.5h0.1l2.8-4.5h-1.6V8.7h5.4L130.5,10.8z M153.9,23h-10.6v-2.1h1.7V10.8h-1.6V8.7h6.2v2.1h-2.1v10.1
					h4.4l0.4-3l2.1,0.2L153.9,23z M165.2,23h-5.7v-2.1h1.6V10.8h-1.6V8.7h5.7v2.1h-1.6v10.1h1.6V23z M184.4,17.4h-0.9V23h-1.9
					l-0.2-1.7c-0.5,0.6-1.1,1-1.7,1.4c-0.8,0.4-1.7,0.5-2.5,0.5c-1.8,0.1-3.6-0.7-4.8-2.1c-1.2-1.4-1.9-3.3-1.8-5.2
					c0-1.9,0.6-3.8,1.9-5.3c1.3-1.5,3.3-2.3,5.3-2.2c1.1,0,2.1,0.1,3.1,0.5c0.8,0.3,1.5,0.7,2.1,1.2l0.4,2.9l-2,0.2l-0.4-1.8
					c-1-0.6-2.1-0.9-3.2-0.9c-1.2,0-2.4,0.5-3.3,1.4c-0.9,1.1-1.4,2.5-1.3,3.9c-0.1,1.4,0.3,2.7,1.2,3.8c0.8,0.9,2,1.4,3.2,1.3
					c0.9,0.1,1.9-0.3,2.6-0.9c0.6-0.6,1-1.4,0.9-2.2v-0.5h-3v-2.1h6.3L184.4,17.4z M204.8,23H199v-2.1h1.6v-4.1h-6.8v4.1h1.6V23
					h-5.7v-2.1h1.6V10.8h-1.6V8.7h5.7v2.1h-1.6v3.9h6.8v-3.9H199V8.7h5.7v2.1h-1.6v10.1h1.6L204.8,23z M223.2,13.4l-2.1,0.2
					l-0.4-2.8h-2.8v10.1h2.4V23h-7.1v-2.1h2.3V10.8h-2.8l-0.4,2.8l-2.1-0.2l0.4-4.7h12.2L223.2,13.4z M239,18.8
					c0.1,1.3-0.5,2.5-1.5,3.3c-1.1,0.8-2.5,1.2-3.9,1.1c-0.9,0-1.9-0.1-2.8-0.4c-0.8-0.2-1.5-0.5-2.1-1l0.4-3.3l2,0.2l-0.1,1.8
					c0.4,0.2,0.9,0.4,1.3,0.5c0.4,0.1,0.8,0.1,1.1,0.1c0.7,0,1.5-0.1,2.1-0.4c0.6-0.3,0.9-1,0.9-1.6c0.1-0.7-0.3-1.5-1-1.8
					c-0.7-0.3-1.5-0.6-2.2-0.7c-0.7-0.1-1.3-0.3-2-0.5c-0.7-0.2-1.3-0.6-1.7-1.1c-0.5-0.6-0.7-1.5-0.7-2.3c-0.1-1.3,0.5-2.5,1.5-3.2
					c1-0.7,2.2-1,3.4-1c0.9,0,1.7,0.1,2.6,0.4c0.7,0.2,1.4,0.5,1.9,1l0.1,3l-2,0.2l-0.2-1.9c-0.4-0.2-0.8-0.4-1.2-0.5
					c-0.4-0.1-0.8-0.1-1.2-0.1c-0.6,0-1.2,0.1-1.7,0.4c-0.5,0.3-0.7,0.8-0.7,1.4c-0.1,0.6,0.3,1.2,0.9,1.5c0.6,0.3,1.2,0.5,1.9,0.6
					c0.6,0.1,1.3,0.3,2,0.5c0.8,0.2,1.4,0.6,2,1.2C238.8,16.9,239.1,17.8,239,18.8z M81.9,53.6c-0.6,0.5-1.4,0.9-2.2,1.2
					c-0.9,0.3-1.9,0.4-2.9,0.4c-1.9,0.1-3.8-0.7-5.1-2c-1.4-1.4-2.1-3.3-2-5.2c0-1.2,0.3-2.4,0.8-3.5c0.5-1.2,1.3-2.2,2.3-2.9
					c1.2-0.8,2.6-1.2,4.1-1.1c1,0,2.1,0.1,3.1,0.5c0.7,0.3,1.4,0.7,2,1.2l0.4,3.1l-2,0.2l-0.3-2c-1-0.6-2.1-0.9-3.2-0.8
					c-1.2-0.1-2.4,0.4-3.2,1.4c-0.9,1.1-1.3,2.5-1.2,3.8c-0.1,1.4,0.4,2.8,1.3,3.9c0.9,0.9,2.1,1.4,3.4,1.4c1,0,2-0.2,2.9-0.6
					l0.3-2.1l2,0.2L81.9,53.6z M102.4,47.8c0,1.9-0.7,3.8-2,5.2C99,54.5,97,55.3,95,55.2c-2,0.1-3.9-0.7-5.3-2.2
					c-1.3-1.4-1.9-3.3-1.9-5.2c0-1.9,0.7-3.8,2-5.3c1.4-1.4,3.3-2.2,5.3-2.1c2-0.1,3.9,0.7,5.3,2.2C101.7,44,102.4,45.9,102.4,47.8
					L102.4,47.8z M99.7,47.9c0.1-1.4-0.4-2.7-1.2-3.8c-0.9-1-2.1-1.5-3.4-1.4c-1.3-0.1-2.6,0.5-3.4,1.5c-0.8,1.1-1.2,2.4-1.2,3.7
					c0,1.3,0.4,2.6,1.1,3.7c1.8,1.9,4.8,2.1,6.7,0.3c0.1-0.1,0.2-0.2,0.2-0.2C99.4,50.5,99.8,49.2,99.7,47.9z M118.7,45l-2.1,0.2
					l-0.4-2.4h-4.4v4.6h6.2v2.1h-6.2v3.5h2.4V55h-6.5v-2.1h1.7V42.8h-1.7v-2.1h10.6L118.7,45z M135.1,45l-2.1,0.2l-0.4-2.4h-4.4v4.6
					h6.2v2.1h-6.2v3.5h2.4V55H124v-2.1h1.7V42.8H124v-2.1h10.6L135.1,45z M151.3,55h-10.9v-2.1h1.6V42.8h-1.6v-2.1h10.7l0.4,4.1
					l-2.1,0.2l-0.4-2.2h-4.6v4h6.3v2.1h-6.3v4.1h4.7l0.4-2.2l2.1,0.2L151.3,55z M168.3,55h-10.9v-2.1h1.6V42.8h-1.6v-2.1h10.7
					l0.4,4.1l-2.1,0.2l-0.4-2.2h-4.6v4h6.3v2.1h-6.3v4.1h4.7l0.4-2.2l2.1,0.2L168.3,55z"/>
				<path id="Fill-44-Copy" class="st1" d="M8.6,8.6c1.1,3,2.2,5.4,3,8c2.7,8.9,8.7,14.6,17.2,17.8c8.8,3.3,14.5,9.2,16.3,18.6
					c0.6,1.9-0.3,3.9-2,4.9c-6,4.1-12.2,3.5-18,0.2C12.7,51.1,4.9,40.5,2.2,26.5C0.9,19.8,2.3,13.6,8.6,8.6"/>
				<path id="Fill-46-Copy" class="st2" d="M50.2,50.8c-0.9-2.8-1.7-4.8-2.3-6.9c-2-6.5-6-11.4-12.6-13.3
					C23.1,27.2,17.2,18.4,13.6,7c-0.9-2.7,0-3.8,2.2-4.7c4.7-1.9,10-1.8,14.6,0.4c14.3,6.5,22.3,17.8,24.1,33.4
					C55.2,41.4,53.7,46.7,50.2,50.8"/>
			</g>
		</g>
	</g>
</g>
</svg>
