<svg xmlns="http://www.w3.org/2000/svg" viewBox="0 0 30.14 34"><defs><style>.cls-1{fill:#84582c;}</style></defs><g id="Layer_2" data-name="Layer 2"><g id="Order"><g id="Bean"><path id="Fill-44-Copy" class="cls-1" d="M3.92,4.31C4.57,6,5.2,7.4,5.64,8.84A15.16,15.16,0,0,0,15.41,19c5,1.88,8.27,5.22,9.31,10.6a2.39,2.39,0,0,1-1.14,2.8c-3.41,2.33-6.95,2-10.27.13a25.26,25.26,0,0,1-13.06-18A9.73,9.73,0,0,1,3.92,4.31"/><path id="Fill-46-Copy" class="cls-1" d="M27.62,28.39c-.53-1.58-1-2.74-1.33-3.93-1.15-3.71-3.43-6.52-7.16-7.56-7-2-10.36-7-12.38-13.46C6.26,1.89,6.72,1.29,8,.77A10.23,10.23,0,0,1,16.32,1C24.46,4.72,29,11.15,30.06,20a10.79,10.79,0,0,1-2.44,8.38"/></g></g></g></svg>